<svg width="44" height="44" viewBox="0 0 44 44" fill="none" xmlns="http://www.w3.org/2000/svg">
<rect x="-0.000137329" y="-0.00012207" width="44.0003" height="44.0003" rx="22.0001" fill="url(#paint0_linear_690_706)"/>
<path d="M12.4487 20.2924C12.7318 20.8734 13.4326 22.0216 13.4326 22.0216L21.534 9.16663L13.6272 14.4662C13.1561 14.7679 12.7696 15.1763 12.5018 15.6552C12.1416 16.3778 11.9503 17.1672 11.9411 17.9682C11.932 18.7691 12.1052 19.5624 12.4487 20.2924Z" fill="#0A0417"/>
<path d="M9.23853 24.5253C9.3278 25.7549 9.68975 26.9521 10.3001 28.0366C10.9105 29.121 11.7553 30.0677 12.7778 30.8135L21.5233 36.6668C21.5233 36.6668 16.0516 29.0979 11.4364 21.5664C10.9692 20.7706 10.6551 19.9006 10.5091 18.998C10.4445 18.5894 10.4445 18.1736 10.5091 17.7649C10.3888 17.9789 10.1552 18.4172 10.1552 18.4172C9.68724 19.3332 9.36853 20.3128 9.21022 21.3217C9.11909 22.3882 9.12857 23.4604 9.23853 24.5253Z" fill="#0A0417"/>
<path d="M31.5501 25.541C31.267 24.9602 30.5663 23.8118 30.5663 23.8118L22.4648 36.6668L30.3716 31.3707C30.8427 31.0689 31.2292 30.6606 31.497 30.1816C31.8577 29.4585 32.0493 28.6686 32.0585 27.8669C32.0677 27.0654 31.8942 26.2715 31.5501 25.541Z" fill="#0A0417"/>
<path d="M34.7602 21.3081C34.671 20.0785 34.309 18.8814 33.6986 17.7969C33.0883 16.7124 32.2435 15.7657 31.221 15.02L22.4755 9.16663C22.4755 9.16663 27.9436 16.7355 32.5623 24.2671C33.0284 25.063 33.3413 25.933 33.4861 26.8354C33.5507 27.2441 33.5507 27.6598 33.4861 28.0686C33.6064 27.8545 33.84 27.4162 33.84 27.4162C34.308 26.5002 34.6268 25.5206 34.7851 24.5117C34.8774 23.4453 34.869 22.3731 34.7602 21.3081Z" fill="#0A0417"/>
<path d="M12.5018 15.6552C12.7696 15.1763 13.1561 14.7679 13.6272 14.4662L21.534 9.16663L13.4326 22.0249C13.4326 22.0249 12.7247 20.8767 12.4487 20.2958C12.1046 19.5653 11.9311 18.7715 11.9403 17.9699C11.9495 17.1683 12.1411 16.3783 12.5018 15.6552ZM9.23853 24.5253C9.3278 25.7549 9.68975 26.9521 10.3001 28.0366C10.9105 29.121 11.7553 30.0677 12.7778 30.8135L21.5233 36.6668C21.5233 36.6668 16.0516 29.0979 11.4364 21.5664C10.9692 20.7706 10.6551 19.9006 10.5091 18.998C10.4445 18.5894 10.4445 18.1736 10.5091 17.7649C10.3888 17.9789 10.1552 18.4172 10.1552 18.4172C9.68724 19.3332 9.36853 20.3128 9.21022 21.3217C9.11909 22.3882 9.12857 23.4604 9.23853 24.5253ZM31.5359 25.5445C31.2528 24.9635 30.5521 23.8153 30.5521 23.8153L22.4648 36.6668L30.3716 31.3707C30.8427 31.0689 31.2292 30.6606 31.497 30.1816C31.8577 29.4585 32.0493 28.6686 32.0585 27.8669C32.0677 27.0654 31.8942 26.2715 31.5501 25.541L31.5359 25.5445ZM34.746 21.3116C34.6568 20.0819 34.2948 18.8848 33.6845 17.8003C33.0741 16.7158 32.2294 15.7691 31.2068 15.0234L22.4755 9.16663C22.4755 9.16663 27.9436 16.7355 32.5623 24.2671C33.0284 25.063 33.3413 25.933 33.4861 26.8354C33.5507 27.2441 33.5507 27.6598 33.4861 28.0686C33.6064 27.8545 33.84 27.4162 33.84 27.4162C34.308 26.5002 34.6268 25.5206 34.7851 24.5117C34.8774 23.4453 34.869 22.3731 34.7602 21.3081L34.746 21.3116Z" fill="#0A0417"/>
<defs>
<linearGradient id="paint0_linear_690_706" x1="22" y1="-0.00012207" x2="22" y2="44.0002" gradientUnits="userSpaceOnUse">
<stop stop-color="#A09FFE"/>
<stop offset="1" stop-color="#4ACEF7"/>
</linearGradient>
</defs>
</svg>
