<svg width="44" height="44" viewBox="0 0 44 44" fill="none" xmlns="http://www.w3.org/2000/svg">
<rect x="11.7852" y="13.3572" width="29.0714" height="17.2857" fill="#0A0417"/>
<path d="M22 0C9.8713 0 0 9.83304 0 22C0 34.1287 9.83304 44 22 44C34.167 44 44 34.167 44 22C44 9.8713 34.1287 0 22 0ZM38.1078 23.1861H27.8922C27.2035 26.553 23.9513 28.7339 20.5843 28.0452C17.2174 27.3565 15.0365 24.1043 15.7252 20.7374C16.4139 17.3704 19.6661 15.1896 23.033 15.8783C25.5965 16.3757 27.5478 18.4417 27.9687 21.0435H38.1078C38.72 21.0435 39.1791 21.5409 39.1791 22.1148C39.1791 22.727 38.6817 23.1861 38.1078 23.1861Z" fill="#008C73"/>
</svg>
