<svg width="44" height="44" viewBox="0 0 44 44" fill="none" xmlns="http://www.w3.org/2000/svg">
<g clip-path="url(#clip0_690_690)">
<path d="M43.9998 22C43.9998 34.1496 34.1494 44 21.9998 44C9.85027 44 -0.000152588 34.1496 -0.000152588 22C-0.000152588 9.85043 9.85027 0 21.9998 0C34.152 0 43.9998 9.85043 43.9998 22Z" fill="url(#paint0_linear_690_690)"/>
<path d="M10.8517 22.7392L10.9467 22.5901L16.6697 13.637C16.7533 13.5059 16.95 13.5195 17.0133 13.6619C17.9694 15.8047 18.7944 18.4696 18.4079 20.1286C18.2429 20.8112 17.7909 21.7357 17.2823 22.5901C17.2167 22.7144 17.1444 22.8365 17.0676 22.954C17.0314 23.0082 16.9704 23.0399 16.9048 23.0399H11.019C10.8608 23.0399 10.7681 22.8681 10.8517 22.7392Z" fill="#0A0417"/>
<path d="M36.3657 24.4028V25.82C36.3657 25.9013 36.316 25.9737 36.2437 26.0053C35.8007 26.1952 34.284 26.8914 33.6534 27.7683C32.0441 30.0083 30.8145 33.2111 28.0659 33.2111H16.5995C12.5354 33.2111 9.24219 29.9066 9.24219 25.829V25.6979C9.24219 25.5894 9.33033 25.5013 9.43887 25.5013H15.8309C15.9575 25.5013 16.0502 25.6188 16.0389 25.7431C15.9937 26.159 16.0705 26.5839 16.2672 26.9705C16.6469 27.7412 17.4335 28.2226 18.2834 28.2226H21.4478V25.7521H18.3195C18.1591 25.7521 18.0641 25.5668 18.1568 25.4357C18.1907 25.3837 18.2291 25.3295 18.2698 25.2684C18.5659 24.848 18.9886 24.1948 19.409 23.4511C19.696 22.9494 19.9741 22.4137 20.1978 21.8757C20.2431 21.7786 20.2792 21.6791 20.3154 21.5819C20.3764 21.4101 20.4397 21.2496 20.4849 21.0892C20.5301 20.9536 20.5663 20.8111 20.6025 20.6778C20.7087 20.2212 20.7539 19.7375 20.7539 19.2357C20.7539 19.0391 20.7449 18.8334 20.7268 18.6367C20.7177 18.422 20.6906 18.2073 20.6635 17.9926C20.6454 17.8027 20.6115 17.6151 20.5753 17.4185C20.5301 17.1314 20.4668 16.8466 20.3945 16.5595L20.3696 16.451C20.3154 16.2544 20.2702 16.0668 20.2069 15.8701C20.0283 15.2531 19.8226 14.6518 19.6057 14.089C19.5266 13.8653 19.4361 13.6505 19.3457 13.4358C19.2123 13.1126 19.0767 12.8187 18.9525 12.5407C18.8891 12.4141 18.8349 12.2989 18.7807 12.1813C18.7196 12.048 18.6563 11.9146 18.5931 11.788C18.5478 11.6908 18.4958 11.6004 18.4597 11.51L18.0732 10.7958C18.0189 10.6986 18.1094 10.5833 18.2155 10.6127L20.6341 11.2682H20.6409C20.6454 11.2682 20.6477 11.2704 20.6499 11.2704L20.9686 11.3586L21.319 11.458L21.4478 11.4942V10.0567C21.4478 9.36274 22.0038 8.79993 22.691 8.79993C23.0345 8.79993 23.3464 8.94004 23.5702 9.16835C23.794 9.39666 23.9341 9.70858 23.9341 10.0567V12.1904L24.1918 12.2627C24.2122 12.2695 24.2325 12.2785 24.2506 12.2921C24.3138 12.3395 24.4042 12.4096 24.5195 12.4955C24.61 12.5678 24.7072 12.656 24.8247 12.7464C25.0575 12.934 25.3355 13.1759 25.6406 13.4539C25.722 13.524 25.8011 13.5963 25.8735 13.6686C26.2668 14.0348 26.7075 14.4642 27.1279 14.9389C27.2455 15.0722 27.3608 15.2078 27.4783 15.3503C27.5958 15.4949 27.7201 15.6373 27.8286 15.7797C27.971 15.9696 28.1247 16.1662 28.2581 16.3719C28.3214 16.4691 28.3937 16.5686 28.4547 16.6658C28.6265 16.9257 28.7779 17.1947 28.9226 17.4636C28.9836 17.5879 29.0469 17.7236 29.1011 17.8569C29.2616 18.2163 29.3882 18.5825 29.4696 18.9487C29.4945 19.0278 29.5125 19.1137 29.5216 19.1905V19.2086C29.5487 19.3171 29.5577 19.4324 29.5668 19.5499C29.6029 19.9251 29.5849 20.3003 29.5035 20.6778C29.4696 20.8383 29.4244 20.9897 29.3701 21.1502C29.3159 21.3039 29.2617 21.4643 29.1916 21.6158C29.056 21.93 28.8955 22.2442 28.7056 22.538C28.6446 22.6465 28.5723 22.7618 28.4999 22.8702C28.4208 22.9855 28.3395 23.0941 28.2671 23.2003C28.1677 23.3359 28.0614 23.4783 27.9529 23.6048C27.8558 23.7382 27.7563 23.8716 27.6478 23.9891C27.4964 24.1677 27.3517 24.3372 27.2002 24.5C27.1099 24.6062 27.0127 24.7147 26.9132 24.8119C26.816 24.9204 26.7165 25.0175 26.6261 25.1079C26.4747 25.2594 26.3481 25.3769 26.2419 25.4741L25.9932 25.7024C25.9571 25.7341 25.9096 25.7521 25.8599 25.7521H23.9341V28.2226H26.3572C26.8996 28.2226 27.415 28.0305 27.8309 27.6779C27.9733 27.5536 28.5949 27.0156 29.3295 26.2042C29.3543 26.1771 29.386 26.1568 29.4221 26.1477L36.1148 24.2129C36.2392 24.1767 36.3657 24.2716 36.3657 24.4028Z" fill="#0A0417"/>
</g>
<defs>
<linearGradient id="paint0_linear_690_690" x1="21.9998" y1="0" x2="21.9998" y2="44" gradientUnits="userSpaceOnUse">
<stop stop-color="#3E99F3"/>
<stop offset="1" stop-color="#2081E2"/>
</linearGradient>
<clipPath id="clip0_690_690">
<rect width="44" height="44" rx="22" fill="white"/>
</clipPath>
</defs>
</svg>
