<svg width="46" height="45" viewBox="0 0 46 45" fill="none" xmlns="http://www.w3.org/2000/svg">
<circle cx="23" cy="22.0395" r="22.0395" fill="url(#paint0_linear_690_772)"/>
<path d="M29.6126 17.6131C29.1426 17.3428 28.5384 17.3428 28.0013 17.6131L24.2418 19.8432L21.6906 21.2624L17.9982 23.4925C17.5282 23.7628 16.924 23.7628 16.3869 23.4925L13.5001 21.7355C13.0302 21.4651 12.6945 20.9245 12.6945 20.3163V16.9373C12.6945 16.3967 12.9631 15.8561 13.5001 15.5182L16.3869 13.8287C16.8569 13.5584 17.4611 13.5584 17.9982 13.8287L20.885 15.5857C21.355 15.8561 21.6906 16.3967 21.6906 17.0049V19.235L24.2418 17.7483V15.4506C24.2418 14.91 23.9732 14.3693 23.4361 14.0314L18.0653 10.8552C17.5954 10.5849 16.9912 10.5849 16.4541 10.8552L10.949 14.099C10.4119 14.3693 10.1434 14.91 10.1434 15.4506V21.803C10.1434 22.3437 10.4119 22.8843 10.949 23.2222L16.3869 26.3984C16.8569 26.6687 17.4611 26.6687 17.9982 26.3984L21.6906 24.2359L24.2418 22.7491L27.9342 20.5866C28.4042 20.3163 29.0084 20.3163 29.5455 20.5866L32.4323 22.2761C32.9022 22.5464 33.2379 23.087 33.2379 23.6953V27.0742C33.2379 27.6148 32.9693 28.1555 32.4323 28.4934L29.6126 30.1829C29.1426 30.4532 28.5384 30.4532 28.0013 30.1829L25.1145 28.4934C24.6446 28.2231 24.3089 27.6824 24.3089 27.0742V24.9117L21.7578 26.3984V28.6285C21.7578 29.1692 22.0263 29.7098 22.5634 30.0477L28.0013 33.2239C28.4713 33.4942 29.0755 33.4942 29.6126 33.2239L35.0505 30.0477C35.5205 29.7774 35.8562 29.2367 35.8562 28.6285V22.2085C35.8562 21.6679 35.5876 21.1272 35.0505 20.7893L29.6126 17.6131Z" fill="#0A0417"/>
<defs>
<linearGradient id="paint0_linear_690_772" x1="23" y1="0" x2="23" y2="44.0791" gradientUnits="userSpaceOnUse">
<stop stop-color="#965EF4"/>
<stop offset="1" stop-color="#8247E5"/>
</linearGradient>
</defs>
</svg>
