<svg width="44" height="44" viewBox="0 0 44 44" fill="none" xmlns="http://www.w3.org/2000/svg">
<path d="M0 21.9824C0 9.8383 9.8383 0 21.9824 0C34.1266 0 43.9649 9.8383 43.9649 21.9824C43.9649 34.1266 34.1266 43.9649 21.9824 43.9649C9.8383 43.9393 0 34.101 0 21.9824Z" fill="#F7F7F7"/>
<path d="M0 21.9824C0 9.8383 9.8383 0 21.9824 0C34.1266 0 43.9649 9.8383 43.9649 21.9824C43.9649 34.1266 34.1266 43.9649 21.9824 43.9649C9.8383 43.9393 0 34.101 0 21.9824Z" fill="url(#paint0_linear_690_701)"/>
<path d="M32.2263 20.421C32.1282 20.1581 31.8767 19.9834 31.5958 19.9834H23.4787L28.1607 10.8801C28.3079 10.5938 28.232 10.2435 27.9786 10.0446C27.8562 9.94775 27.709 9.90002 27.5625 9.90002C27.4058 9.90002 27.2492 9.95515 27.1235 10.0634L22.1847 14.3286L12.3347 22.8356C12.1223 23.0191 12.0457 23.3156 12.1438 23.5784C12.2419 23.8412 12.4927 24.0167 12.7737 24.0167H20.8907L16.2087 33.1199C16.0615 33.4063 16.1374 33.7565 16.3909 33.9555C16.5132 34.0523 16.6604 34.1 16.807 34.1C16.9636 34.1 17.1202 34.0449 17.2459 33.9367L22.1847 29.6714L32.0347 21.1645C32.2478 20.9809 32.3238 20.6845 32.2263 20.421Z" fill="#0A0417"/>
<defs>
<linearGradient id="paint0_linear_690_701" x1="21.9824" y1="0" x2="21.9824" y2="43.9649" gradientUnits="userSpaceOnUse">
<stop stop-color="#FFCC4A"/>
<stop offset="1" stop-color="#FFAC32"/>
</linearGradient>
</defs>
</svg>
